<?xml version="1.0" encoding="UTF-8" standalone="no"?>
<!-- Created with Inkscape (http://www.inkscape.org/) -->

<svg
   width="180mm"
   height="180mm"
   viewBox="0 0 1400 1400"
   version="1.1"
   id="svg1"
   fill-rule="evenodd"
   stroke-width="28.222"
   stroke-linejoin="round"
   preserveAspectRatio="xMidYMid"
   xmlns="http://www.w3.org/2000/svg"
   xmlns:svg="http://www.w3.org/2000/svg">
  <defs
     id="defs1" />
  <g
     id="nodes1To4"
     class="Page">
    <g
       id="node4_group"
       class="com.sun.star.drawing.ClosedBezierShape"
       transform="rotate(-90,700,700)">
      <g
         id="node4_arrows">
        <g
           id="node4_south">
          <path
             id="node4_south_east"
             d="m 599.44453,131.59223 v 194.445 h 11.111 l -19.444,38.888 -19.445,-38.888 h 11.111 v -194.445 z"
             fill="#000000"
             stroke="none"
             style="stroke-width:22.1263" />
          <path
             id="node4_south_west"
             d="m 621.66642,364.92523 v -194.445 h -11.111 l 19.443,-38.888 19.446,38.888 h -11.111 v 194.445 z"
             fill="#000000"
             stroke="none"
             style="stroke-width:22.126" />
        </g>
        <g
           id="node4_north">
          <path
             id="node4_north_east"
             d="m 778.33343,131.59223 v 194.445 h 11.111 l -19.443,38.888 -19.446,-38.888 h 11.111 v -194.445 z"
             fill="#000000"
             stroke="none"
             style="stroke-width:22.1262" />
          <path
             id="node4_north_west"
             d="m 800.55532,364.92563 v -194.4453 h -11.111 l 19.444,-38.8881 19.445,38.8881 h -11.111 v 194.4453 z"
             fill="#000000"
             stroke="none"
             style="stroke-width:22.1262" />
        </g>
        <g
           id="node4_crossing">
          <path
             id="node4_crossing_south"
             d="M 816.66669,299.99959 H 622.22175 v 11.11153 l -38.8884,-19.4435 38.8884,-19.44539 v 11.11057 h 194.44494 z"
             fill="#000000"
             stroke="none"
             style="stroke-width:22.1262" />
          <path
             id="node4_crossing_north"
             d="m 583.33335,322.22223 h 194.44503 v -11.11111 l 38.88831,19.44345 -38.88831,19.44544 V 338.88889 H 583.33335 Z"
             fill="#000000"
             stroke="none"
             style="stroke-width:22.1263" />
        </g>
      </g>
      <g
         id="node4">
        <path
           id="node4_spike"
           d="m 661.11087,699.99998 v -568.4076 l 38.889,-53.8146 38.889,53.8135 v 568.4087 z"
           fill="#1565c0"
           stroke="none"
           style="stroke-width:17.1546" />
        <text
           xml:space="preserve"
           style="font-size:63.0899px;text-align:start;writing-mode:lr-tb;direction:ltr;text-anchor:start;fill:#ffffff;stroke-width:38.9426"
           x="133.91887"
           y="-654.36975"
           id="node4_spike_text"
           transform="matrix(0,0.96512986,-1.03613,0,0,0)">4</text>
      </g>
    </g>
    <g
       id="node3_group"
       class="com.sun.star.drawing.ClosedBezierShape">
      <g
         id="node3">
        <path
           id="node3_spike"
           d="m 738.88891,700.00002 v 568.40778 l -38.88831,53.8145 -38.88947,-53.8143 V 700.00002 Z"
           fill="#1565c0"
           stroke="none"
           style="stroke-width:17.1546" />
        <text
           xml:space="preserve"
           style="font-size:63.0799px;text-align:start;writing-mode:lr-tb;direction:ltr;text-anchor:start;fill:#ffffff;stroke-width:38.9365"
           x="701.77631"
           y="1229.7999"
           id="node3_spike_text"
           transform="scale(0.96576591,1.0354476)">3</text>
      </g>
      <g
         id="node3_arrows">
        <g
           id="node3_west">
          <path
             id="node3_west_north"
             d="m 621.66709,1268.4078 v -194.4449 h -11.11152 l 19.4435,-38.8884 19.44539,38.8884 h -11.11057 v 194.4449 z"
             fill="#000000"
             stroke="none"
             style="stroke-width:22.1262" />
          <path
             id="node3_west_south"
             d="m 599.44446,1035.0745 v 194.445 h 11.11111 l -19.44345,38.8883 -19.44544,-38.8883 h 11.11111 v -194.445 z"
             fill="#000000"
             stroke="none"
             style="stroke-width:22.1263" />
        </g>
        <g
           id="node3_east">
          <path
             id="node3_east_north"
             d="m 800.55599,1268.4078 v -194.4449 h -11.11152 l 19.4435,-38.8884 19.44539,38.8884 h -11.11057 v 194.4449 z"
             fill="#000000"
             stroke="none"
             style="stroke-width:22.1262" />
          <path
             id="node3_east_south"
             d="m 778.33336,1035.0745 v 194.445 h 11.11111 l -19.44345,38.8883 -19.44544,-38.8883 h 11.11111 v -194.445 z"
             fill="#000000"
             stroke="none"
             style="stroke-width:22.1263" />
        </g>
        <g
           id="node3_crossing">
          <path
             id="node3_crossing_west"
             d="M 816.66669,1077.7774 H 622.22175 v 11.1115 l -38.8884,-19.4435 38.8884,-19.4454 v 11.1106 h 194.44494 z"
             fill="#000000"
             stroke="none"
             style="stroke-width:22.1262" />
          <path
             id="node3_crossing_east"
             d="m 583.33335,1100 h 194.44503 v -11.1111 l 38.88831,19.4435 -38.88831,19.4454 v -11.1111 H 583.33335 Z"
             fill="#000000"
             stroke="none"
             style="stroke-width:22.1263" />
        </g>
      </g>
    </g>
    <g
       id="node2_group"
       class="com.sun.star.drawing.ClosedBezierShape"
       transform="rotate(90, 700, 700)">
      <g
         id="node2">
        <path
           id="node2_spike"
           d="m 661.11113,699.99998 v -568.408 l 38.889,-53.814 38.889,53.813 v 568.409 z"
           fill="#1565c0"
           stroke="none"
           style="stroke-width:17.1547" />
        <text
           xml:space="preserve"
           style="font-size:63.0799px;text-align:start;writing-mode:lr-tb;direction:ltr;text-anchor:start;fill:#ffffff;stroke-width:38.9365"
           x="-174.92575"
           y="696.33978"
           id="node2_spike_text"
           transform="matrix(0,-0.96576591,1.0354476,0,0,0)">2</text>
      </g>
      <g
         id="node2_arrows">
        <g
           id="node2_south">
          <path
             id="node2_south_east"
             d="m 800.55557,364.92553 v -194.445 h -11.1111 l 19.4434,-38.888 19.4455,38.888 h -11.1111 v 194.445 z"
             fill="#000000"
             stroke="none"
             style="stroke-width:22.1262" />
          <path
             id="node2_south_west"
             d="m 778.33338,131.59253 v 194.445 h 11.1111 l -19.4435,38.888 -19.4454,-38.888 h 11.1111 v -194.445 z"
             fill="#000000"
             stroke="none"
             style="stroke-width:22.1262" />
        </g>
        <g
           id="node2_north">
          <path
             id="node2_north_east"
             d="m 621.66667,364.92553 v -194.445 h -11.1111 l 19.4435,-38.888 19.4454,38.888 h -11.1111 v 194.445 z"
             fill="#000000"
             stroke="none"
             style="stroke-width:22.1262" />
          <path
             id="node2_north_west"
             d="m 599.44448,131.59253 v 194.445 h 11.1111 l -19.4434,38.888 -19.4455,-38.888 h 11.1111 v -194.445 z"
             fill="#000000"
             stroke="none"
             style="stroke-width:22.1262" />
        </g>
        <g
           id="node2_crossing">
          <path
             id="node2_crossing_north"
             d="M 816.66669,299.99959 H 622.22175 v 11.11153 l -38.8884,-19.4435 38.8884,-19.44539 v 11.11057 h 194.44494 z"
             fill="#000000"
             stroke="none"
             style="stroke-width:22.1262" />
          <path
             id="node2_crossing_south"
             d="m 583.33335,322.22223 h 194.44503 v -11.11111 l 38.88831,19.44345 -38.88831,19.44544 V 338.88889 H 583.33335 Z"
             fill="#000000"
             stroke="none"
             style="stroke-width:22.1263" />
        </g>
      </g>
    </g>
    <g
       id="node1_group"
       class="com.sun.star.drawing.ClosedBezierShape">
      <g
         id="node1">
        <path
           id="node1_spike"
           d="M 661.11113,700.00002 V 131.59223 l 38.88831,-53.81445 38.88947,53.8143 v 568.40794 z"
           fill="#1565c0"
           stroke="none"
           style="stroke-width:17.1546" />
        <text
           xml:space="preserve"
           style="font-size:63.0799px;text-align:start;writing-mode:lr-tb;direction:ltr;text-anchor:start;fill:#ffffff;stroke-width:38.9365"
           x="701.77631"
           y="179.69041"
           id="node1_spike_text"
           transform="scale(0.96576588,1.0354476)">1</text>
      </g>
      <g
         id="node1_arrows">
        <g
           id="node1_west">
          <path
             id="node1_west_north"
             d="M 621.66709,364.92557 V 170.48063 h -11.11152 l 19.4435,-38.8884 19.44539,38.8884 h -11.11057 v 194.44494 z"
             fill="#000000"
             stroke="none"
             style="stroke-width:22.1262" />
          <path
             id="node1_west_south"
             d="m 599.44446,131.59223 v 194.44503 h 11.11111 l -19.44345,38.88831 -19.44544,-38.88831 h 11.11111 V 131.59223 Z"
             fill="#000000"
             stroke="none"
             style="stroke-width:22.1263" />
        </g>
        <g
           id="node1_east">
          <path
             id="node1_east_north"
             d="M 800.55599,364.92557 V 170.48063 h -11.11152 l 19.4435,-38.8884 19.44539,38.8884 h -11.11057 v 194.44494 z"
             fill="#000000"
             stroke="none"
             style="stroke-width:22.1262" />
          <path
             id="node1_east_south"
             d="m 778.33336,131.59223 v 194.44503 h 11.11111 l -19.44345,38.88831 -19.44544,-38.88831 h 11.11111 V 131.59223 Z"
             fill="#000000"
             stroke="none"
             style="stroke-width:22.1263" />
        </g>
        <g
           id="node1_crossing">
          <path
             id="node1_crossing_west"
             d="M 816.66669,299.99959 H 622.22175 v 11.11153 l -38.8884,-19.4435 38.8884,-19.44539 v 11.11057 h 194.44494 z"
             fill="#000000"
             stroke="none"
             style="stroke-width:22.1262" />
          <path
             id="node1_crossing_east"
             d="m 583.33335,322.22223 h 194.44503 v -11.11111 l 38.88831,19.44345 -38.88831,19.44544 V 338.88889 H 583.33335 Z"
             fill="#000000"
             stroke="none"
             style="stroke-width:22.1263" />
        </g>
      </g>
    </g>
  </g>
  <g
     id="nodes5To8"
     class="Page"
     transform="rotate(45,700,700)">
    <g
       id="node8_group"
       class="com.sun.star.drawing.ClosedBezierShape"
       transform="rotate(-90,700,700)">
      <g
         id="node8_arrows">
        <g
           id="node8_south_west">
          <path
             id="node8_south_west_south_east"
             d="m 599.44453,131.59223 v 194.445 h 11.111 l -19.444,38.888 -19.445,-38.888 h 11.111 v -194.445 z"
             fill="#000000"
             stroke="none"
             style="stroke-width:22.1263" />
          <path
             id="node8_south_west_north_west"
             d="m 621.66642,364.92523 v -194.445 h -11.111 l 19.443,-38.888 19.446,38.888 h -11.111 v 194.445 z"
             fill="#000000"
             stroke="none"
             style="stroke-width:22.126" />
        </g>
        <g
           id="node8_north_east">
          <path
             id="node8_north_east_south_east"
             d="m 778.33343,131.59223 v 194.445 h 11.111 l -19.443,38.888 -19.446,-38.888 h 11.111 v -194.445 z"
             fill="#000000"
             stroke="none"
             style="stroke-width:22.1262" />
          <path
             id="node8_north_east_north_west"
             d="m 800.55532,364.92563 v -194.4453 h -11.111 l 19.444,-38.8881 19.445,38.8881 h -11.111 v 194.4453 z"
             fill="#000000"
             stroke="none"
             style="stroke-width:22.1262" />
        </g>
        <g
           id="node8_crossing">
          <path
             id="node8_crossing_south_west"
             d="M 816.66669,299.99959 H 622.22175 v 11.11153 l -38.8884,-19.4435 38.8884,-19.44539 v 11.11057 h 194.44494 z"
             fill="#000000"
             stroke="none"
             style="stroke-width:22.1262" />
          <path
             id="node8_crossing_north_east"
             d="m 583.33335,322.22223 h 194.44503 v -11.11111 l 38.88831,19.44345 -38.88831,19.44544 V 338.88889 H 583.33335 Z"
             fill="#000000"
             stroke="none"
             style="stroke-width:22.1263" />
        </g>
      </g>
      <g
         id="node8">
        <path
           id="node8_spike"
           d="m 661.11087,699.99998 v -568.4076 l 38.889,-53.8146 38.889,53.8135 v 568.4087 z"
           fill="#1565c0"
           stroke="none"
           style="stroke-width:17.1546" />
        <text
           xml:space="preserve"
           style="font-size:63.0899px;text-align:start;writing-mode:lr-tb;direction:ltr;text-anchor:start;fill:#ffffff;stroke-width:38.9426"
           x="603.00354"
           y="-354.56787"
           id="node8_spike_text"
           transform="matrix(0.68244987,0.68244987,-0.73265455,0.73265455,0,0)">8</text>
      </g>
    </g>
    <g
       id="node7_group"
       class="com.sun.star.drawing.ClosedBezierShape">
      <g
         id="node7">
        <path
           id="node7_spike"
           d="m 738.88891,700.00002 v 568.40778 l -38.88831,53.8145 -38.88947,-53.8143 V 700.00002 Z"
           fill="#1565c0"
           stroke="none"
           style="stroke-width:17.1546" />
        <text
           xml:space="preserve"
           style="font-size:63.0799px;text-align:start;writing-mode:lr-tb;direction:ltr;text-anchor:start;fill:#ffffff;stroke-width:38.9365"
           x="-424.5455"
           y="1352.3147"
           id="node7_text"
           transform="matrix(0.68289963,-0.68289963,0.73217202,0.73217202,0,0)">7</text>
      </g>
      <g
         id="node7_arrows">
        <g
           id="node7_north_west">
          <path
             id="node7_north_west_north_east"
             d="m 621.66709,1268.4078 v -194.4449 h -11.11152 l 19.4435,-38.8884 19.44539,38.8884 h -11.11057 v 194.4449 z"
             fill="#000000"
             stroke="none"
             style="stroke-width:22.1262" />
          <path
             id="node7_north_west_south_west"
             d="m 599.44446,1035.0745 v 194.445 h 11.11111 l -19.44345,38.8883 -19.44544,-38.8883 h 11.11111 v -194.445 z"
             fill="#000000"
             stroke="none"
             style="stroke-width:22.1263" />
        </g>
        <g
           id="node7_south_east">
          <path
             id="node7_south_east_north_east"
             d="m 800.55599,1268.4078 v -194.4449 h -11.11152 l 19.4435,-38.8884 19.44539,38.8884 h -11.11057 v 194.4449 z"
             fill="#000000"
             stroke="none"
             style="stroke-width:22.1262" />
          <path
             id="node7_south_east_south_west"
             d="m 778.33336,1035.0745 v 194.445 h 11.11111 l -19.44345,38.8883 -19.44544,-38.8883 h 11.11111 v -194.445 z"
             fill="#000000"
             stroke="none"
             style="stroke-width:22.1263" />
        </g>
        <g
           id="node7_crossing">
          <path
             id="node7_crossing_north_west"
             d="M 808.33025,1077.7756 H 613.88531 v 11.1116 l -38.8884,-19.4435 38.8884,-19.4454 v 11.1105 h 194.44494 z"
             fill="#000000"
             stroke="none"
             style="stroke-width:22.1262" />
          <path
             id="node7_crossing_south_east"
             d="m 591.66231,1099.9989 h 194.44506 v -11.1112 l 38.8883,19.4435 -38.8883,19.4454 v -11.1111 H 591.66231 Z"
             fill="#000000"
             stroke="none"
             style="stroke-width:22.1263" />
        </g>
      </g>
    </g>
    <g
       id="node6_group"
       class="com.sun.star.drawing.ClosedBezierShape"
       transform="rotate(90,700,700)">
      <g
         id="node6">
        <path
           id="node6_spike"
           d="m 661.11113,699.99998 v -568.408 l 38.889,-53.814 38.889,53.813 v 568.409 z"
           fill="#1565c0"
           stroke="none"
           style="stroke-width:17.1547" />
        <text
           xml:space="preserve"
           style="font-size:63.0799px;text-align:start;writing-mode:lr-tb;direction:ltr;text-anchor:start;fill:#ffffff;stroke-width:38.9365"
           x="-640.21271"
           y="397.35382"
           id="node6_spike_text"
           transform="matrix(-0.68289963,-0.68289963,0.73217202,-0.73217202,0,0)">6</text>
      </g>
      <g
         id="node6_arrows">
        <g
           id="node6_south_west">
          <path
             id="node6_south_west_south_east"
             d="m 800.55557,364.92553 v -194.445 h -11.1111 l 19.4434,-38.888 19.4455,38.888 h -11.1111 v 194.445 z"
             fill="#000000"
             stroke="none"
             style="stroke-width:22.1262" />
          <path
             id="node6_south_west_north_west"
             d="m 778.33338,131.59253 v 194.445 h 11.1111 l -19.4435,38.888 -19.4454,-38.888 h 11.1111 v -194.445 z"
             fill="#000000"
             stroke="none"
             style="stroke-width:22.1262" />
        </g>
        <g
           id="node6_north_east">
          <path
             id="node6_north_east_south_east"
             d="m 621.66667,364.92553 v -194.445 h -11.1111 l 19.4435,-38.888 19.4454,38.888 h -11.1111 v 194.445 z"
             fill="#000000"
             stroke="none"
             style="stroke-width:22.1262" />
          <path
             id="node6_north_east_north_west"
             d="m 599.44448,131.59253 v 194.445 h 11.1111 l -19.4434,38.888 -19.4455,-38.888 h 11.1111 v -194.445 z"
             fill="#000000"
             stroke="none"
             style="stroke-width:22.1262" />
        </g>
        <g
           id="node6_crossing">
          <path
             id="node6_crossing_north_east"
             d="M 816.66669,299.99959 H 622.22175 v 11.11153 l -38.8884,-19.4435 38.8884,-19.44539 v 11.11057 h 194.44494 z"
             fill="#000000"
             stroke="none"
             style="stroke-width:22.1262" />
          <path
             id="node6_crossing_south_west"
             d="m 583.33335,322.22223 h 194.44503 v -11.11111 l 38.88831,19.44345 -38.88831,19.44544 V 338.88889 H 583.33335 Z"
             fill="#000000"
             stroke="none"
             style="stroke-width:22.1263" />
        </g>
      </g>
    </g>
    <g
       id="node5_group"
       class="com.sun.star.drawing.ClosedBezierShape">
      <g
         id="node5">
        <path
           id="node5_spike"
           d="M 661.11113,700.00002 V 131.59223 l 38.88831,-53.81445 38.88947,53.8143 v 568.40794 z"
           fill="#1565c0"
           stroke="none"
           style="stroke-width:17.1546" />
        <text
           xml:space="preserve"
           style="font-size:63.0799px;text-align:start;writing-mode:lr-tb;direction:ltr;text-anchor:start;fill:#ffffff;stroke-width:38.9365"
           x="371.39447"
           y="610.23108"
           id="node5_spike_text"
           transform="matrix(0.68289962,-0.68289962,0.73217203,0.73217203,0,0)">5</text>
      </g>
      <g
         id="node5_arrows">
        <g
           id="node5_north_west">
          <path
             id="node5_north_west_north_east"
             d="M 621.66709,364.92557 V 170.48063 h -11.11152 l 19.4435,-38.8884 19.44539,38.8884 h -11.11057 v 194.44494 z"
             fill="#000000"
             stroke="none"
             style="stroke-width:22.1262" />
          <path
             id="node5_north_west_south_west"
             d="m 599.44446,131.59223 v 194.44503 h 11.11111 l -19.44345,38.88831 -19.44544,-38.88831 h 11.11111 V 131.59223 Z"
             fill="#000000"
             stroke="none"
             style="stroke-width:22.1263" />
        </g>
        <g
           id="node5_south_east">
          <path
             id="node5_south_east_north_east"
             d="M 800.55599,364.92557 V 170.48063 h -11.11152 l 19.4435,-38.8884 19.44539,38.8884 h -11.11057 v 194.44494 z"
             fill="#000000"
             stroke="none"
             style="stroke-width:22.1262" />
          <path
             id="node5_south_east_south_west"
             d="m 778.33336,131.59223 v 194.44503 h 11.11111 l -19.44345,38.88831 -19.44544,-38.88831 h 11.11111 V 131.59223 Z"
             fill="#000000"
             stroke="none"
             style="stroke-width:22.1263" />
        </g>
        <g
           id="node5_crossing">
          <path
             id="node5_crossing_north_west"
             d="M 816.66669,299.99959 H 622.22175 v 11.11153 l -38.8884,-19.4435 38.8884,-19.44539 v 11.11057 h 194.44494 z"
             fill="#000000"
             stroke="none"
             style="stroke-width:22.1262" />
          <path
             id="node5_crossing_south_east"
             d="m 583.33335,322.22223 h 194.44503 v -11.11111 l 38.88831,19.44345 -38.88831,19.44544 V 338.88889 H 583.33335 Z"
             fill="#000000"
             stroke="none"
             style="stroke-width:22.1263" />
        </g>
      </g>
    </g>
  </g>
  <path
     id="center"
     d="m 14253.004,17465.11 166.703,0 117.876,117.877 0,166.702 -117.876,117.877 -166.703,0 -117.876,-117.877 0,-166.702 z"
     fill="#1565c0"
     transform="matrix(0.46656362,0,0,0.46656362,-5988.8219,-7542.4705)" />
</svg>
